<svg width="80" height="80" viewBox="0 0 80 80" fill="none" xmlns="http://www.w3.org/2000/svg">
  <path
    d="M39.9998 49.189C47.1795 49.189 52.9998 43.3687 52.9998 36.189V35.5872C52.9998 32.7279 52.0987 29.9414 50.4247 27.6235L40.0254 13.2246C40.0128 13.207 39.9867 13.207 39.9741 13.2246C38.5073 15.2555 38.4631 17.9859 39.8634 20.0633L42.6383 24.1799C43.4605 25.3997 43.8998 26.8372 43.8998 28.3082V29.1942C43.8998 32.784 40.9896 35.6942 37.3998 35.6942C33.8099 35.6942 30.8998 32.784 30.8998 29.1942V28.3082C30.8998 26.8372 31.339 25.3997 32.1612 24.1799L33.5522 22.1164L29.5749 27.6235C27.9008 29.9414 26.9998 32.7279 26.9998 35.5872V36.189C26.9998 43.3687 32.8201 49.189 39.9998 49.189Z"
    stroke="currentColor" stroke-linecap="round" stroke-linejoin="round" />
  <path d="M13.6887 66.7879L66.3115 47.6348" stroke="currentColor" stroke-linecap="round" stroke-linejoin="round" />
  <path d="M13.6887 47.6353L66.3115 66.7884" stroke="currentColor" stroke-linecap="round" stroke-linejoin="round" />
</svg>